<svg xmlns="http://www.w3.org/2000/svg" version="1.1"  x="0px" y="0px" viewBox="0 0 92 68.3" width="50px">
  <style type="text/css">
	.quto1{fill:none;stroke:#FFFFFF;stroke-width:2;stroke-miterlimit:10;}
</style>
  <path class="quto1 accent-stroke" d="M65.3,42.2c0-6.1-12.6-7-12.6-22C52.7,9.2,60.6,1,71.6,1C83.3,1.1,91,11.6,91,22.7c0,19.2-18,44.6-29.2,44.6
	c-2.8,0-7.9-2-7.9-5.4C54,58.5,65.3,52.6,65.3,42.2z" style="stroke:#939393;"></path>
  <path class="quto1 accent-stroke" d="M13.6,42.2c0-6-12.6-7-12.6-21.9C1,9.3,8.9,1.1,19.9,1.1c11.8,0,19.5,10.5,19.5,21.6c0,19.2-18,44.6-29.2,44.6
	c-2.8,0-7.9-2-7.9-5.4C2.3,58.5,13.6,52.6,13.6,42.2z" style="stroke:#939393;"></path>
</svg>